<mxfile host="Electron" agent="Mozilla/5.0 (Macintosh; Intel Mac OS X 10_15_7) AppleWebKit/537.36 (KHTML, like Gecko) draw.io/25.0.2 Chrome/128.0.6613.186 Electron/32.2.5 Safari/537.36" version="25.0.2">
  <diagram name="Page-1" id="GeK1qg_5Syw4WNhKvq6A">
    <mxGraphModel dx="1114" dy="824" grid="1" gridSize="10" guides="1" tooltips="1" connect="1" arrows="1" fold="1" page="1" pageScale="1" pageWidth="850" pageHeight="1100" math="0" shadow="0">
      <root>
        <mxCell id="0" />
        <mxCell id="1" parent="0" />
        <mxCell id="KVjcW4b2CjrPPL7cpDri-1" value="1" style="ellipse;whiteSpace=wrap;html=1;aspect=fixed;fillColor=none;" vertex="1" parent="1">
          <mxGeometry x="160" y="40" width="40" height="40" as="geometry" />
        </mxCell>
        <mxCell id="KVjcW4b2CjrPPL7cpDri-2" value="2" style="ellipse;whiteSpace=wrap;html=1;aspect=fixed;fillColor=none;" vertex="1" parent="1">
          <mxGeometry x="80" y="160" width="40" height="40" as="geometry" />
        </mxCell>
        <mxCell id="KVjcW4b2CjrPPL7cpDri-3" value="4" style="ellipse;whiteSpace=wrap;html=1;aspect=fixed;fillColor=none;" vertex="1" parent="1">
          <mxGeometry x="240" y="160" width="40" height="40" as="geometry" />
        </mxCell>
        <mxCell id="KVjcW4b2CjrPPL7cpDri-4" value="3" style="ellipse;whiteSpace=wrap;html=1;aspect=fixed;fillColor=none;" vertex="1" parent="1">
          <mxGeometry x="280" y="40" width="40" height="40" as="geometry" />
        </mxCell>
        <mxCell id="KVjcW4b2CjrPPL7cpDri-6" value="" style="endArrow=classic;html=1;rounded=0;" edge="1" parent="1" source="KVjcW4b2CjrPPL7cpDri-4" target="KVjcW4b2CjrPPL7cpDri-1">
          <mxGeometry width="50" height="50" relative="1" as="geometry">
            <mxPoint x="360" y="370" as="sourcePoint" />
            <mxPoint x="410" y="320" as="targetPoint" />
          </mxGeometry>
        </mxCell>
        <mxCell id="KVjcW4b2CjrPPL7cpDri-7" value="" style="endArrow=classic;html=1;rounded=0;" edge="1" parent="1" source="KVjcW4b2CjrPPL7cpDri-3" target="KVjcW4b2CjrPPL7cpDri-2">
          <mxGeometry width="50" height="50" relative="1" as="geometry">
            <mxPoint x="360" y="370" as="sourcePoint" />
            <mxPoint x="410" y="320" as="targetPoint" />
          </mxGeometry>
        </mxCell>
        <mxCell id="KVjcW4b2CjrPPL7cpDri-8" value="" style="endArrow=classic;html=1;rounded=0;" edge="1" parent="1" source="KVjcW4b2CjrPPL7cpDri-1" target="KVjcW4b2CjrPPL7cpDri-3">
          <mxGeometry x="-0.0012" width="50" height="50" relative="1" as="geometry">
            <mxPoint x="360" y="370" as="sourcePoint" />
            <mxPoint x="410" y="320" as="targetPoint" />
            <mxPoint as="offset" />
          </mxGeometry>
        </mxCell>
        <mxCell id="KVjcW4b2CjrPPL7cpDri-9" value="" style="endArrow=classic;html=1;rounded=0;" edge="1" parent="1" source="KVjcW4b2CjrPPL7cpDri-2" target="KVjcW4b2CjrPPL7cpDri-1">
          <mxGeometry width="50" height="50" relative="1" as="geometry">
            <mxPoint x="260" y="320" as="sourcePoint" />
            <mxPoint x="310" y="270" as="targetPoint" />
          </mxGeometry>
        </mxCell>
      </root>
    </mxGraphModel>
  </diagram>
</mxfile>
